<?xml version="1.0" encoding="utf-8"?>
<!-- Generator: Adobe Illustrator 27.5.0, SVG Export Plug-In . SVG Version: 6.00 Build 0)  -->
<svg version="1.1" id="图层_1" xmlns="http://www.w3.org/2000/svg" xmlns:xlink="http://www.w3.org/1999/xlink" x="0px" y="0px"
	 viewBox="0 0 595.28 841.89" style="enable-background:new 0 0 595.28 841.89;" xml:space="preserve">
<style type="text/css">
	.st0{fill:#FFFFFF;stroke:#000000;stroke-width:0.75;stroke-miterlimit:10;}
	.st1{fill:#D90000;}
	.st2{fill:#E60012;}
	.st3{font-family:'CambriaMath';}
	.st4{font-size:39.9092px;}
</style>
<g>
	<path class="st0" d="M145.67,183.31H78.84c-0.95,0-1.73-0.78-1.73-1.73V88.77c0-0.95,0.78-1.73,1.73-1.73h66.83
		c0.95,0,1.73,0.78,1.73,1.73v92.81C147.4,182.53,146.62,183.31,145.67,183.31z"/>
	<path class="st1" d="M91.63,141.55c-1.99-2.35-3.88-4.6-5.63-7.12c-1.59-2.29-3.59-5.17-2.55-8.07c0.58-1.63,2.27-2.97,4.05-3.17
		c2.21-0.24,3.98,1.84,3.98,3.94l-0.08-0.01h0.23h0.01h0.23l-0.08,0.01c0-2.11,1.77-4.19,3.98-3.94c1.78,0.19,3.46,1.54,4.05,3.17
		c1.04,2.91-0.96,5.78-2.55,8.07C95.53,136.94,93.62,139.21,91.63,141.55"/>
	<path class="st1" d="M123,178.67c-4.8-5.67-9.38-11.13-13.62-17.22c-3.84-5.54-8.69-12.49-6.16-19.52
		c1.41-3.94,5.49-7.19,9.79-7.66c5.35-0.59,9.63,4.44,9.63,9.54l-0.18-0.02H123h0.03h0.55l-0.18,0.02c0-5.1,4.28-10.12,9.63-9.54
		c4.3,0.47,8.37,3.72,9.79,7.66c2.52,7.03-2.32,13.99-6.16,19.52c-4.23,6.1-8.84,11.57-13.64,17.24"/>
	<g>
		<text transform="matrix(0.7158 0 0 1 82.3154 117.7595)" class="st2 st3 st4">A</text>
	</g>
</g>
</svg>
