<?xml version="1.0" encoding="utf-8"?>
<!-- Generator: Adobe Illustrator 27.5.0, SVG Export Plug-In . SVG Version: 6.00 Build 0)  -->
<svg version="1.1" id="图层_1" xmlns="http://www.w3.org/2000/svg" xmlns:xlink="http://www.w3.org/1999/xlink" x="0px" y="0px"
	 viewBox="0 0 595.28 841.89" style="enable-background:new 0 0 595.28 841.89;" xml:space="preserve">
<style type="text/css">
	.st0{fill:#FFFFFF;stroke:#000000;stroke-width:0.75;stroke-miterlimit:10;}
	.st1{font-family:'CambriaMath';}
	.st2{font-size:39.9092px;}
</style>
<g>
	<g>
		<path class="st0" d="M192.73,260.74H125.9c-0.95,0-1.73-0.78-1.73-1.73v-92.81c0-0.95,0.78-1.73,1.73-1.73h66.83
			c0.95,0,1.73,0.78,1.73,1.73v92.81C194.45,259.96,193.68,260.74,192.73,260.74z"/>
		<path d="M170.86,257.01c1.91,0,3.68,0,5.58,0c-0.84,0.03-2.34-4.54-2.57-5.23c-1.07-3.24-1.4-6.3-1.77-10.13
			c0.47,0.03,1.57,0.06,2.03,0.09c0.17,4.1,3.46,7.99,7.56,8.01c3.52,0.01,6.65-2.18,7.53-5.56c0.48-1.84,0.36-4.61-0.2-6.42
			c-0.9-2.89-2.49-5.7-3.95-8.35c-1.55-2.81-3.46-4.98-5.35-7.58c-2.87-3.95-7.19-8.12-8.15-13.13h-0.11
			c-0.96,5.01-5.28,9.18-8.15,13.13c-1.89,2.6-3.8,4.77-5.35,7.58c-1.46,2.64-3.05,5.45-3.95,8.35c-0.57,1.81-0.68,4.58-0.2,6.42
			c0.88,3.38,4.01,5.57,7.53,5.56c4.1-0.02,7.39-3.91,7.56-8.01c0.47-0.03,1.57-0.06,2.03-0.09c-0.36,3.82-0.69,6.89-1.77,10.13
			c-0.23,0.69-1.73,5.25-2.57,5.23c1.9,0,3.67,0,5.58,0"/>
		<path d="M137.19,220.62c0.79,0,1.51,0,2.3,0c-0.34,0.01-0.96-1.87-1.06-2.15c-0.44-1.33-0.58-2.6-0.73-4.17
			c0.19,0.01,0.65,0.02,0.84,0.04c0.07,1.69,1.42,3.29,3.11,3.3c1.45,0.01,2.74-0.9,3.1-2.29c0.2-0.76,0.15-1.9-0.08-2.64
			c-0.37-1.19-1.02-2.35-1.63-3.44c-0.64-1.16-1.42-2.05-2.2-3.12c-1.18-1.63-2.96-3.34-3.36-5.4h-0.05
			c-0.4,2.06-2.17,3.78-3.36,5.4c-0.78,1.07-1.56,1.96-2.2,3.12c-0.6,1.09-1.25,2.25-1.63,3.44c-0.23,0.75-0.28,1.89-0.08,2.64
			c0.36,1.39,1.65,2.29,3.1,2.29c1.69-0.01,3.04-1.61,3.11-3.3c0.19-0.01,0.65-0.02,0.84-0.04c-0.15,1.57-0.29,2.84-0.73,4.17
			c-0.09,0.28-0.71,2.16-1.06,2.15c0.78,0,1.51,0,2.3,0"/>
	</g>
	<g>
		<text transform="matrix(0.7158 0 0 1 127.1995 195.2054)" class="st1 st2">A</text>
	</g>
</g>
</svg>
